<svg width="129" height="24" viewBox="0 0 129 24" fill="none" xmlns="http://www.w3.org/2000/svg">
<path d="M116.977 17.897V14.743H127.145V8.914H116.977V6.103H128.553V0H109.007V24H129V17.897H116.977Z" fill="white"/>
<path d="M24.045 -0.675002V24H17.185V14.095H8.82V24H1.96V-0.675002H8.82V8.6H17.185V-0.675002H24.045ZM46.5 24.245C44.19 24.245 42.0666 23.7083 40.13 22.635C38.1933 21.5383 36.6533 20.0333 35.51 18.12C34.39 16.1833 33.83 14.0017 33.83 11.575C33.83 9.14833 34.39 6.97833 35.51 5.065C36.6533 3.12833 38.1933 1.62333 40.13 0.549999C42.0666 -0.523334 44.19 -1.06 46.5 -1.06C48.8333 -1.06 50.9566 -0.523334 52.87 0.549999C54.8066 1.62333 56.335 3.12833 57.455 5.065C58.575 6.97833 59.135 9.14833 59.135 11.575C59.135 14.0017 58.575 16.1833 57.455 18.12C56.335 20.0333 54.8066 21.5383 52.87 22.635C50.9333 23.7083 48.81 24.245 46.5 24.245ZM46.5 17.875C48.25 17.875 49.6266 17.3033 50.63 16.16C51.6566 15.0167 52.17 13.4883 52.17 11.575C52.17 9.615 51.6566 8.075 50.63 6.955C49.6266 5.81167 48.25 5.24 46.5 5.24C44.7266 5.24 43.3383 5.81167 42.335 6.955C41.3316 8.075 40.83 9.615 40.83 11.575C40.83 13.5117 41.3316 15.0517 42.335 16.195C43.3383 17.315 44.7266 17.875 46.5 17.875ZM97.723 -0.675002V24H90.863V10.385L86.208 24H80.468L75.778 10.28V24H68.918V-0.675002H77.213L83.408 15.355L89.463 -0.675002H97.723Z" fill="white"/>
</svg>
